<?xml version="1.0" encoding="utf-8" ?>
<svg baseProfile="full" height="200mm" version="1.1" viewBox="0,0,200,200" width="200mm" xmlns="http://www.w3.org/2000/svg" xmlns:ev="http://www.w3.org/2001/xml-events" xmlns:xlink="http://www.w3.org/1999/xlink"><defs /><rect fill="#1a1a1a" height="200" width="200" x="0" y="0" /><text alignment-baseline="middle" fill="#e1ed5e" style="dominant-baseline: central; font-size:9.0px; font-family:Arial;" text-anchor="middle" x="100.0" y="100.0">2025</text><line stroke="#e1ed5e" stroke-width="0.3" x1="100.0" x2="100.0" y1="15.0" y2="10.0" /><path d="M 100.0 14.0 a86.0,86.0 0 0,1 42.46469731375804,11.215312516191453" fill="none" id="id49" stroke="none" /><text fill="#e1ed5e" style="font-size:6.75px; font-family:Arial;" text-anchor="middle"><textPath startOffset="22.20632615414155" xlink:href="#id49">January</textPath></text><line stroke="#e1ed5e" stroke-width="0.3" x1="143.23703022742887" x2="145.7803849466894" y1="26.81831364943548" y2="22.513508569990506" /><path d="M 143.74570117128098 25.957352633546492 a86.0,86.0 0 0,1 28.547481713284135,27.462654790039103" fill="none" id="id50" stroke="none" /><text fill="#e1ed5e" style="font-size:6.75px; font-family:Arial;" text-anchor="middle"><textPath startOffset="19.985693538727396" xlink:href="#id50">February</textPath></text><path d="M 114.42810811169701 84.74124197986012 l 8.985161741416261 -9.502452277366782 a34.07783356688116,34.07783356688116 0 0,0 0.42275460312189217,0.4066895932552272 l -9.147399588150572 9.346379597349253" fill="#ff0000" stroke="none" /><path d="M 115.19652480421416 85.50635884689758 l 14.40255387130112 -13.736393694496325 a40.90281562357269,40.90281562357269 0 0,0 0.48154822121734603,0.513682067415916 l -14.636869414488928 13.486442210202355" fill="#ff770b" stroke="none" /><path d="M 116.15771136456269 86.58626213691792 l 12.559054033487424 -10.426220323687737 a37.322864590939176,37.322864590939176 0 0,0 0.40611099233607656,0.4978440574997779 l -12.73666351789991 10.208492096579857" fill="#ff3a05" stroke="none" /><path d="M 116.82858285166822 87.43820079747576 l 26.14695171739384 -19.51755297086341 a53.62817736377844,53.62817736377844 0 0,0 0.5458260250185658,0.7445060847136993 l -26.479040354926035 19.064584442478218" fill="#c1ff1e" stroke="none" /><path d="M 117.2510076193507 88.02491185347247 l 18.766360758918484 -13.026996986860215 a43.84466998294221,43.84466998294221 0 0,0 0.42503343425502416,0.623684118398151 l -18.987818658842244 12.702034845191656" fill="#ffa80f" stroke="none" /><line stroke="#e1ed5e" stroke-width="0.3" x1="172.23445277983987" x2="176.4835382374775" y1="55.19839476539836" y2="52.563006222186495" /><path d="M 173.08426987136738 54.67131705675599 a86.0,86.0 0 0,1 12.851231095245387,41.99856678651699" fill="none" id="id51" stroke="none" /><text fill="#e1ed5e" style="font-size:6.75px; font-family:Arial;" text-anchor="middle"><textPath startOffset="22.20632615414155" xlink:href="#id51">March</textPath></text><path d="M 118.03404312379186 89.2402003453031 l 33.617372262040014 -20.057409643193772 a60.14623097310212,60.14623097310212 0 0,0 0.522814884819664,0.8936601110916984 l -33.95764682133 19.47577011974818" fill="#69ff28" stroke="none" /><path d="M 118.3937258080291 89.86733742301442 l 14.289346378190622 -7.8716583473629 a37.314056057692014,37.314056057692014 0 0,0 0.30507243859113803,0.5652528962357378 l -14.422726916000226 7.6245244677947035" fill="#ff3a05" stroke="none" /><path d="M 118.73160827565052 90.50648371742162 l 29.10160126466306 -14.749215411167786 a53.62579579738198,53.62579579738198 0 0,0 0.41021176867879156,0.8269618941950222 l -29.35117304629526 14.246093928473814" fill="#c1ff1e" stroke="none" /><path d="M 119.196687751892 91.48605970444005 l 47.72131703351209 -21.16492435049195 a73.20419640388135,73.20419640388135 0 0,0 0.5009582429399415,1.1562806936675134 l -48.07856598629472 20.340344512237838" fill="#3cffa7" stroke="none" /><path d="M 119.7369772167798 92.82701384747503 l 30.659075166134492 -11.142391218293433 a53.62103266458907,53.62103266458907 0 0,0 0.30780239483394195,0.870198819311809 l -30.84633064177824 10.612994772555009" fill="#c2ff1e" stroke="none" /><path d="M 120.18372546131832 94.20196356495316 l 31.356213039456886 -9.007478129658791 a53.62432770850746,53.62432770850746 0 0,0 0.24721639722229835,0.8893689144110022 l -31.506616207245546 8.466397911828837" fill="#c1ff1e" stroke="none" /><path d="M 120.45610955862082 95.25157060432595 l 31.782709291313452 -7.37764679254146 a53.62775324921469,53.62775324921469 0 0,0 0.20099072348490063,0.9010020030624191 l -31.90499440180039 6.829466619929078" fill="#c1ff1e" stroke="none" /><path d="M 120.67395015179393 96.31383870115 l 62.02185045538181 -11.058483896549978 a84.0,84.0 0 0,0 0.2415525539191079,1.4256568467366484 l -62.20301487082114 9.98924126149749" fill="#4dd2ff" stroke="none" /><path d="M 120.91429891909075 98.10471618934814 l 16.256543337174108 -1.4731913091278512 a37.32315820871408,37.32315820871408 0 0,0 0.05247550055233071,0.6403340223072526 l -16.279493321545935 1.19314336961283" fill="#ff3a05" stroke="none" /><line stroke="#e1ed5e" stroke-width="0.3" x1="184.98032266829074" x2="189.97916517819016" y1="98.17113171792111" y2="98.06355123074" /><path d="M 185.9800911702706 98.14961562048488 a86.0,86.0 0 0,1 -9.607161424134198,41.387399972396054" fill="none" id="id52" stroke="none" /><text fill="#e1ed5e" style="font-size:6.75px; font-family:Arial;" text-anchor="middle"><textPath startOffset="21.466115282336823" xlink:href="#id52">April</textPath></text><path d="M 120.99980553446 99.90962569577887 l 32.66134733462414 -0.1405606606902906 a53.661649790117664,53.661649790117664 0 0,0 -0.003975313048963148,0.9237227515752746 l -32.658927724285675 -0.42167156908866876" fill="#c1ff1e" stroke="none" /><path d="M 120.8583938346157 102.4346265915055 l 32.40453137446372 3.7823110635976476 a53.624523453690735,53.624523453690735 0 0,0 -0.1149058391796704,0.9159125951256216 l -32.334624026037204 -4.339541413010664" fill="#c1ff1e" stroke="none" /><line stroke="#e1ed5e" stroke-width="0.3" x1="174.80103733775053" x2="179.2010983576182" y1="140.37084112569926" y2="142.7455964860345" /><path d="M 175.68104954172406 140.8457921977663 a86.0,86.0 0 0,1 -30.038265399797805,32.042727171017184" fill="none" id="id53" stroke="none" /><text fill="#e1ed5e" style="font-size:6.75px; font-family:Arial;" text-anchor="middle"><textPath startOffset="22.206326154141568" xlink:href="#id53">May</textPath></text><line stroke="#e1ed5e" stroke-width="0.3" x1="143.8653032363475" x2="146.44561519142675" y1="172.8068346515853" y2="177.08958963109032" /><path d="M 144.38136562736335 173.6633856474863 a86.0,86.0 0 0,1 -40.68145358897372,12.25698825130547" fill="none" id="id54" stroke="none" /><text fill="#e1ed5e" style="font-size:6.75px; font-family:Arial;" text-anchor="middle"><textPath startOffset="21.466115282336833" xlink:href="#id54">June</textPath></text><line stroke="#e1ed5e" stroke-width="0.3" x1="102.19456741930631" x2="102.32365962044197" y1="184.97166512339345" y2="189.96999836594603" /><path d="M 102.22038585953345 185.97133177190398 a86.0,86.0 0 0,1 -42.740103519485714,-10.115201625700543" fill="none" id="id55" stroke="none" /><text fill="#e1ed5e" style="font-size:6.75px; font-family:Arial;" text-anchor="middle"><textPath startOffset="22.20632615414155" xlink:href="#id55">July</textPath></text><line stroke="#e1ed5e" stroke-width="0.3" x1="58.666819895761336" x2="56.23545636021788" y1="174.27360380694188" y2="178.64263932499728" /><path d="M 58.180547188652646 175.14741091055294 a86.0,86.0 0 0,1 -31.652253787137756,-30.449443065178592" fill="none" id="id56" stroke="none" /><text fill="#e1ed5e" style="font-size:6.75px; font-family:Arial;" text-anchor="middle"><textPath startOffset="22.20632615414155" xlink:href="#id56">August</textPath></text><line stroke="#e1ed5e" stroke-width="0.3" x1="26.63291911575756" x2="22.317208475507996" y1="142.92168965132927" y2="145.44649492493687" /><path d="M 25.769776987707644 143.4266507060508 a86.0,86.0 0 0,1 -11.730757126820373,-40.83630448921669" fill="none" id="id57" stroke="none" /><text fill="#e1ed5e" style="font-size:6.75px; font-family:Arial;" text-anchor="middle"><textPath startOffset="21.46611528233685" xlink:href="#id57">September</textPath></text><line stroke="#e1ed5e" stroke-width="0.3" x1="15.007084014347285" x2="10.007500721073583" y1="101.09737516637583" y2="101.16192664675087" /><path d="M 14.007167355692545 101.11028546245083 a86.0,86.0 0 0,1 10.666146001902534,-42.60595125391555" fill="none" id="id58" stroke="none" /><text fill="#e1ed5e" style="font-size:6.75px; font-family:Arial;" text-anchor="middle"><textPath startOffset="22.20632615414155" xlink:href="#id58">October</textPath></text><line stroke="#e1ed5e" stroke-width="0.3" x1="26.266209847984243" x2="21.928928074336255" y1="57.711370442889674" y2="55.22380399835377" /><path d="M 25.398753493254645 57.213857153982495 a86.0,86.0 0 0,1 29.58750427330803,-30.492523968695096" fill="none" id="id59" stroke="none" /><text fill="#e1ed5e" style="font-size:6.75px; font-family:Arial;" text-anchor="middle"><textPath startOffset="21.46611528233685" xlink:href="#id59">November</textPath></text><line stroke="#e1ed5e" stroke-width="0.3" x1="56.762969772571076" x2="54.21961505331055" y1="26.818313649435495" y2="22.513508569990535" /><path d="M 56.25429882871897 25.957352633546506 a86.0,86.0 0 0,1 42.265352541879196,-11.944610805530505" fill="none" id="id60" stroke="none" /><text fill="#e1ed5e" style="font-size:6.75px; font-family:Arial;" text-anchor="middle"><textPath startOffset="22.20632615414155" xlink:href="#id60">December</textPath></text></svg>