<?xml version="1.0" encoding="utf-8" ?>
<svg baseProfile="full" height="200mm" version="1.1" viewBox="0,0,200,200" width="200mm" xmlns="http://www.w3.org/2000/svg" xmlns:ev="http://www.w3.org/2001/xml-events" xmlns:xlink="http://www.w3.org/1999/xlink"><defs /><rect fill="#1a1a1a" height="200" width="200" x="0" y="0" /><text alignment-baseline="middle" fill="#e1ed5e" style="dominant-baseline: central; font-size:9.0px; font-family:Arial;" text-anchor="middle" x="100.0" y="100.0">2022</text><line stroke="#e1ed5e" stroke-width="0.3" x1="100.0" x2="100.0" y1="15.0" y2="10.0" /><path d="M 100.0 14.0 a86.0,86.0 0 0,1 42.46469731375804,11.215312516191453" fill="none" id="id13" stroke="none" /><text fill="#e1ed5e" style="font-size:6.75px; font-family:Arial;" text-anchor="middle"><textPath startOffset="22.20632615414155" xlink:href="#id13">January</textPath></text><path d="M 100.72285384407766 79.0124445844662 l 1.1096986007713423 -32.21932216179332 a53.23842662956709,53.23842662956709 0 0,0 0.9155974212588617,0.03942755096974377 l -1.6641368544195354 32.195446884299386" fill="#a7ff21" stroke="none" /><line stroke="#e1ed5e" stroke-width="0.3" x1="143.23703022742887" x2="145.7803849466894" y1="26.81831364943548" y2="22.513508569990506" /><path d="M 143.74570117128098 25.957352633546492 a86.0,86.0 0 0,1 28.547481713284135,27.462654790039103" fill="none" id="id14" stroke="none" /><text fill="#e1ed5e" style="font-size:6.75px; font-family:Arial;" text-anchor="middle"><textPath startOffset="19.985693538727396" xlink:href="#id14">February</textPath></text><line stroke="#e1ed5e" stroke-width="0.3" x1="172.23445277983987" x2="176.4835382374775" y1="55.19839476539836" y2="52.563006222186495" /><path d="M 173.08426987136738 54.67131705675599 a86.0,86.0 0 0,1 12.851231095245387,41.99856678651699" fill="none" id="id15" stroke="none" /><text fill="#e1ed5e" style="font-size:6.75px; font-family:Arial;" text-anchor="middle"><textPath startOffset="22.20632615414155" xlink:href="#id15">March</textPath></text><line stroke="#e1ed5e" stroke-width="0.3" x1="184.98032266829074" x2="189.97916517819016" y1="98.17113171792111" y2="98.06355123074" /><path d="M 185.9800911702706 98.14961562048488 a86.0,86.0 0 0,1 -9.607161424134198,41.387399972396054" fill="none" id="id16" stroke="none" /><text fill="#e1ed5e" style="font-size:6.75px; font-family:Arial;" text-anchor="middle"><textPath startOffset="21.466115282336823" xlink:href="#id16">April</textPath></text><path d="M 120.49622156327973 104.57218783832717 l 17.6778809076645 3.943487429811236 a39.112387100949675,39.112387100949675 0 0,0 -0.15223925651127485,0.6558427325790515 l -17.60738108522267 -4.247198819738853" fill="#ff900d" stroke="none" /><line stroke="#e1ed5e" stroke-width="0.3" x1="174.80103733775053" x2="179.2010983576182" y1="140.37084112569926" y2="142.7455964860345" /><path d="M 175.68104954172406 140.8457921977663 a86.0,86.0 0 0,1 -30.038265399797805,32.042727171017184" fill="none" id="id17" stroke="none" /><text fill="#e1ed5e" style="font-size:6.75px; font-family:Arial;" text-anchor="middle"><textPath startOffset="22.206326154141568" xlink:href="#id17">May</textPath></text><path d="M 114.55890576462653 115.13401014063108 l 6.317422834193834 6.566973011642155 a30.112352374750994,30.112352374750994 0 0,0 -0.37663980528780727,0.356136444570945 l -6.203447194515219 -6.6747440929590205" fill="#ff0000" stroke="none" /><line stroke="#e1ed5e" stroke-width="0.3" x1="143.8653032363475" x2="146.44561519142675" y1="172.8068346515853" y2="177.08958963109032" /><path d="M 144.38136562736335 173.6633856474863 a86.0,86.0 0 0,1 -40.68145358897372,12.25698825130547" fill="none" id="id18" stroke="none" /><text fill="#e1ed5e" style="font-size:6.75px; font-family:Arial;" text-anchor="middle"><textPath startOffset="21.466115282336833" xlink:href="#id18">June</textPath></text><line stroke="#e1ed5e" stroke-width="0.3" x1="102.19456741930631" x2="102.32365962044197" y1="184.97166512339345" y2="189.96999836594603" /><path d="M 102.22038585953345 185.97133177190398 a86.0,86.0 0 0,1 -42.740103519485714,-10.115201625700543" fill="none" id="id19" stroke="none" /><text fill="#e1ed5e" style="font-size:6.75px; font-family:Arial;" text-anchor="middle"><textPath startOffset="22.20632615414155" xlink:href="#id19">July</textPath></text><line stroke="#e1ed5e" stroke-width="0.3" x1="58.666819895761336" x2="56.23545636021788" y1="174.27360380694188" y2="178.64263932499728" /><path d="M 58.180547188652646 175.14741091055294 a86.0,86.0 0 0,1 -31.652253787137756,-30.449443065178592" fill="none" id="id20" stroke="none" /><text fill="#e1ed5e" style="font-size:6.75px; font-family:Arial;" text-anchor="middle"><textPath startOffset="22.20632615414155" xlink:href="#id20">August</textPath></text><path d="M 83.06392112726016 112.41649034213515 l -27.123926190475043 19.885592770054014 a54.63248685129844,54.63248685129844 0 0,0 -0.5494992959889595,-0.7632064615620725 l 27.46220527883961 -19.415752703040805" fill="#95ff23" stroke="none" /><line stroke="#e1ed5e" stroke-width="0.3" x1="26.63291911575756" x2="22.317208475507996" y1="142.92168965132927" y2="145.44649492493687" /><path d="M 25.769776987707644 143.4266507060508 a86.0,86.0 0 0,1 -11.730757126820373,-40.83630448921669" fill="none" id="id21" stroke="none" /><text fill="#e1ed5e" style="font-size:6.75px; font-family:Arial;" text-anchor="middle"><textPath startOffset="21.46611528233685" xlink:href="#id21">September</textPath></text><path d="M 79.10278846688536 102.07522291339032 l -34.151092765645046 3.39141564951282 a55.31907395597168,55.31907395597168 0 0,0 -0.0859431962567573,-0.9483760091622905 l 34.20441055817888 -2.803058251801963" fill="#8dff24" stroke="none" /><line stroke="#e1ed5e" stroke-width="0.3" x1="15.007084014347285" x2="10.007500721073583" y1="101.09737516637583" y2="101.16192664675087" /><path d="M 14.007167355692545 101.11028546245083 a86.0,86.0 0 0,1 10.666146001902534,-42.60595125391555" fill="none" id="id22" stroke="none" /><text fill="#e1ed5e" style="font-size:6.75px; font-family:Arial;" text-anchor="middle"><textPath startOffset="22.20632615414155" xlink:href="#id22">October</textPath></text><path d="M 79.12142395522702 97.74499172005258 l -31.48637055204248 -3.400712105465837 a52.66948647144108,52.66948647144108 0 0,0 0.10511236121430215,-0.9005385198469001 l 31.42316783782459 3.942194363637599" fill="#aeff20" stroke="none" /><path d="M 79.16333360222342 97.38593545837743 l -33.14432740452219 -4.158122483226765 a54.404137792849504,54.404137792849504 0 0,0 0.12456993394710057,-0.9281906993792782 l 33.067841471517255 4.728031524670702" fill="#98ff23" stroke="none" /><path d="M 79.3925641242962 95.95851677861259 l -32.885908292642576 -6.449509166809959 a54.51237283041688,54.51237283041688 0 0,0 0.1885108045851997,-0.9192456314070163 l 32.77001819214238 7.014630454380378" fill="#97ff23" stroke="none" /><path d="M 79.71946130924805 94.55025226153421 l -32.9516564800044 -8.854706382256712 a55.12063144040851,55.12063144040851 0 0,0 0.25411458753177796,-0.9141853751954635 l 32.79435512190626 9.420603060871118" fill="#8fff24" stroke="none" /><path d="M 80.2630227832202 92.82701384747504 l -58.424579229208256 -21.23317533253874 a83.16332675148881,83.16332675148881 0 0,0 0.5005458526822871,-1.3412140294475277 l 58.05042878802434 22.23571249901561" fill="#4cdbff" stroke="none" /><path d="M 81.43458229118936 90.18545643968196 l -30.53391421787613 -16.141647651490302 a55.53798932146283,55.53798932146283 0 0,0 0.4540677596279128,-0.8413185976493042 l 30.251538359029745 16.66484723247208" fill="#8aff24" stroke="none" /><path d="M 81.6062741919709 89.86733742301443 l -29.82465276850222 -16.429686194793433 a55.05061675243362,55.05061675243362 0 0,0 0.4643712428491677,-0.8260646250929633 l 29.53742388436062 16.94063432982118" fill="#90ff24" stroke="none" /><line stroke="#e1ed5e" stroke-width="0.3" x1="26.266209847984243" x2="21.928928074336255" y1="57.711370442889674" y2="55.22380399835377" /><path d="M 25.398753493254645 57.213857153982495 a86.0,86.0 0 0,1 29.58750427330803,-30.492523968695096" fill="none" id="id23" stroke="none" /><text fill="#e1ed5e" style="font-size:6.75px; font-family:Arial;" text-anchor="middle"><textPath startOffset="21.46611528233685" xlink:href="#id23">November</textPath></text><path d="M 82.95767976084542 87.72973835380427 l -27.516205863508265 -19.811330893790345 a54.9062002723133,54.9062002723133 0 0,0 0.5588337049051179,-0.7622485454606382 l 27.171109546089514 20.282041882922485" fill="#92ff23" stroke="none" /><path d="M 84.31358615837235 86.03803664274999 l -47.05924152488297 -41.885890071750055 a84.0,84.0 0 0,0 0.9706254375358201,-1.071788850921776 l 46.331272446731106 42.68973170994139" fill="#4dd2ff" stroke="none" /><path d="M 84.80347519578584 85.50635884689758 l -22.91574758152839 -21.855827334262834 a52.667154524608534,52.667154524608534 0 0,0 0.6313430915673319,-0.6506545524846552 l 22.53614022625794 22.247046082297615" fill="#aeff20" stroke="none" /><path d="M 85.05521093208273 85.24692304244772 l -23.969436847814748 -23.661956340631164 a54.68118288699663,54.68118288699663 0 0,0 0.6670172123882047,-0.6641528285008378 l 23.55858383525923 24.07104501978211" fill="#95ff23" stroke="none" /><line stroke="#e1ed5e" stroke-width="0.3" x1="56.762969772571076" x2="54.21961505331055" y1="26.818313649435495" y2="22.513508569990535" /><path d="M 56.25429882871897 25.957352633546506 a86.0,86.0 0 0,1 42.265352541879196,-11.944610805530505" fill="none" id="id24" stroke="none" /><text fill="#e1ed5e" style="font-size:6.75px; font-family:Arial;" text-anchor="middle"><textPath startOffset="22.20632615414155" xlink:href="#id24">December</textPath></text></svg>