<?xml version="1.0" encoding="utf-8" ?>
<svg baseProfile="full" height="200mm" version="1.1" viewBox="0,0,200,200" width="200mm" xmlns="http://www.w3.org/2000/svg" xmlns:ev="http://www.w3.org/2001/xml-events" xmlns:xlink="http://www.w3.org/1999/xlink"><defs /><rect fill="#1a1a1a" height="200" width="200" x="0" y="0" /><text alignment-baseline="middle" fill="#e1ed5e" style="dominant-baseline: central; font-size:9.0px; font-family:Arial;" text-anchor="middle" x="100.0" y="100.0">2023</text><line stroke="#e1ed5e" stroke-width="0.3" x1="100.0" x2="100.0" y1="15.0" y2="10.0" /><path d="M 100.0 14.0 a86.0,86.0 0 0,1 42.46469731375804,11.215312516191453" fill="none" id="id25" stroke="none" /><text fill="#e1ed5e" style="font-size:6.75px; font-family:Arial;" text-anchor="middle"><textPath startOffset="22.20632615414155" xlink:href="#id25">January</textPath></text><line stroke="#e1ed5e" stroke-width="0.3" x1="143.23703022742887" x2="145.7803849466894" y1="26.81831364943548" y2="22.513508569990506" /><path d="M 143.74570117128098 25.957352633546492 a86.0,86.0 0 0,1 28.547481713284135,27.462654790039103" fill="none" id="id26" stroke="none" /><text fill="#e1ed5e" style="font-size:6.75px; font-family:Arial;" text-anchor="middle"><textPath startOffset="19.985693538727396" xlink:href="#id26">February</textPath></text><line stroke="#e1ed5e" stroke-width="0.3" x1="172.23445277983987" x2="176.4835382374775" y1="55.19839476539836" y2="52.563006222186495" /><path d="M 173.08426987136738 54.67131705675599 a86.0,86.0 0 0,1 12.851231095245387,41.99856678651699" fill="none" id="id27" stroke="none" /><text fill="#e1ed5e" style="font-size:6.75px; font-family:Arial;" text-anchor="middle"><textPath startOffset="22.20632615414155" xlink:href="#id27">March</textPath></text><line stroke="#e1ed5e" stroke-width="0.3" x1="184.98032266829074" x2="189.97916517819016" y1="98.17113171792111" y2="98.06355123074" /><path d="M 185.9800911702706 98.14961562048488 a86.0,86.0 0 0,1 -9.607161424134198,41.387399972396054" fill="none" id="id28" stroke="none" /><text fill="#e1ed5e" style="font-size:6.75px; font-family:Arial;" text-anchor="middle"><textPath startOffset="21.466115282336823" xlink:href="#id28">April</textPath></text><line stroke="#e1ed5e" stroke-width="0.3" x1="174.80103733775053" x2="179.2010983576182" y1="140.37084112569926" y2="142.7455964860345" /><path d="M 175.68104954172406 140.8457921977663 a86.0,86.0 0 0,1 -30.038265399797805,32.042727171017184" fill="none" id="id29" stroke="none" /><text fill="#e1ed5e" style="font-size:6.75px; font-family:Arial;" text-anchor="middle"><textPath startOffset="22.206326154141568" xlink:href="#id29">May</textPath></text><path d="M 114.29624159901734 115.38237550388516 l 8.007081572889152 8.615406685130893 a32.76174254373471,32.76174254373471 0 0,0 -0.41638684977016216,0.380359514828124 l -7.857595173652126 -8.7519589665456" fill="#ff5908" stroke="none" /><line stroke="#e1ed5e" stroke-width="0.3" x1="143.8653032363475" x2="146.44561519142675" y1="172.8068346515853" y2="177.08958963109032" /><path d="M 144.38136562736335 173.6633856474863 a86.0,86.0 0 0,1 -40.68145358897372,12.25698825130547" fill="none" id="id30" stroke="none" /><text fill="#e1ed5e" style="font-size:6.75px; font-family:Arial;" text-anchor="middle"><textPath startOffset="21.466115282336833" xlink:href="#id30">June</textPath></text><line stroke="#e1ed5e" stroke-width="0.3" x1="102.19456741930631" x2="102.32365962044197" y1="184.97166512339345" y2="189.96999836594603" /><path d="M 102.22038585953345 185.97133177190398 a86.0,86.0 0 0,1 -42.740103519485714,-10.115201625700543" fill="none" id="id31" stroke="none" /><text fill="#e1ed5e" style="font-size:6.75px; font-family:Arial;" text-anchor="middle"><textPath startOffset="22.20632615414155" xlink:href="#id31">July</textPath></text><line stroke="#e1ed5e" stroke-width="0.3" x1="58.666819895761336" x2="56.23545636021788" y1="174.27360380694188" y2="178.64263932499728" /><path d="M 58.180547188652646 175.14741091055294 a86.0,86.0 0 0,1 -31.652253787137756,-30.449443065178592" fill="none" id="id32" stroke="none" /><text fill="#e1ed5e" style="font-size:6.75px; font-family:Arial;" text-anchor="middle"><textPath startOffset="22.20632615414155" xlink:href="#id32">August</textPath></text><path d="M 83.50135304334701 112.99209946851258 l -11.788360182697371 9.282915651607313 a36.00459792169923,36.00459792169923 0 0,0 -0.37923674328973195,-0.4902146123294313 l 11.946403743205172 -9.07862304516463" fill="#ff890c" stroke="none" /><path d="M 82.85270091963577 112.12312394758628 l -12.288988720082743 8.688303198411832 a36.050111502239915,36.050111502239915 0 0,0 -0.353873203894079,-0.509780743320125 l 12.436722831138956 -8.475481192904695" fill="#ff890c" stroke="none" /><path d="M 82.05923443525364 110.91462005526583 l -12.834594085652622 7.808179506214998 a36.0231312496678,36.0231312496678 0 0,0 -0.3177225154605299,-0.5325212112767937 l 12.967097476811384 -7.586096201052093" fill="#ff890c" stroke="none" /><line stroke="#e1ed5e" stroke-width="0.3" x1="26.63291911575756" x2="22.317208475507996" y1="142.92168965132927" y2="145.44649492493687" /><path d="M 25.769776987707644 143.4266507060508 a86.0,86.0 0 0,1 -11.730757126820373,-40.83630448921669" fill="none" id="id33" stroke="none" /><text fill="#e1ed5e" style="font-size:6.75px; font-family:Arial;" text-anchor="middle"><textPath startOffset="21.46611528233685" xlink:href="#id33">September</textPath></text><path d="M 79.97269907076064 106.31721596034903 l -13.904109907328579 4.385776462408165 a35.57941382543503,35.57941382543503 0 0,0 -0.17920711584077478,-0.5856592234219835 l 13.977543795675484 -4.145790266434134" fill="#ff830c" stroke="none" /><line stroke="#e1ed5e" stroke-width="0.3" x1="15.007084014347285" x2="10.007500721073583" y1="101.09737516637583" y2="101.16192664675087" /><path d="M 14.007167355692545 101.11028546245083 a86.0,86.0 0 0,1 10.666146001902534,-42.60595125391555" fill="none" id="id34" stroke="none" /><text fill="#e1ed5e" style="font-size:6.75px; font-family:Arial;" text-anchor="middle"><textPath startOffset="22.20632615414155" xlink:href="#id34">October</textPath></text><path d="M 79.12142395522702 97.74499172005258 l -15.34604680542161 -1.657462776028254 a36.435295118918525,36.435295118918525 0 0,0 0.07271382650685407,-0.6229676599252046 l 15.315242625911166 1.9213741742783206" fill="#ff8f0d" stroke="none" /><path d="M 79.16333360222342 97.38593545837743 l -29.527116965322495 -3.7043252505894033 a50.75857291346461,50.75857291346461 0 0,0 0.11622263179971624,-0.8659936027556178 l 29.458978334464945 4.212037195409681" fill="#b0ff20" stroke="none" /><path d="M 79.32604984820605 96.31383870115002 l -15.022241230508925 -2.678462695291231 a36.25915770931243,36.25915770931243 0 0,0 0.11484531555586079,-0.6135082679457463 l 14.973910191043203 2.93664904069955" fill="#ff8c0c" stroke="none" /><path d="M 79.46518482838121 95.60439243477599 l -34.89730995876763 -7.469990763429585 a56.687855138184275,56.687855138184275 0 0,0 0.21245963753288033,-0.9524148959114727 l 34.76355593423271 8.069583828891016" fill="#6aff28" stroke="none" /><path d="M 79.71946130924805 94.55025226153421 l -40.48258702780108 -10.878403698547089 a62.918725165396566,62.918725165396566 0 0,0 0.29006499881474423,-1.0435181323046547 l 40.289335258419975 11.573633134270686" fill="#31ff3b" stroke="none" /><path d="M 79.91906864156998 93.8553929516997 l -14.358735271349358 -4.3936600538188095 a36.01590913868405,36.01590913868405 0 0,0 0.1865015531397392,-0.591260889598224 l 14.280978234441415 4.640171109843449" fill="#ff890c" stroke="none" /><path d="M 80.14247586403 93.16781622104843 l -28.91358053887931 -9.948012380421131 a51.57708439173481,51.57708439173481 0 0,0 0.29606945829695663,-0.8370282277475339 l 28.738057999772543 10.444238234595277" fill="#a6ff21" stroke="none" /><path d="M 80.52162464483688 92.15188598940014 l -27.656717849718106 -11.143284328692513 a50.81722367775042,50.81722367775042 0 0,0 0.33388927619917486,-0.80853936617612 l 27.46080688663273 11.617698265321945" fill="#afff20" stroke="none" /><path d="M 80.803312248108 91.48605970444005 l -13.790585457758747 -6.116274992106548 a36.08605538392376,36.08605538392376 0 0,0 0.2567225268709704,-0.5656540580997044 l 13.683260613924423 6.352751059048323" fill="#ff8a0c" stroke="none" /><path d="M 81.10775173730289 90.83032412892265 l -56.676744788091334 -27.50902761323202 a84.0,84.0 0 0,0 0.6425599481863489,-1.295361646004154 l 56.19482482695157 28.480548847735136" fill="#4dd2ff" stroke="none" /><path d="M 81.6062741919709 89.86733742301443 l -19.561563642643335 -10.775996442363624 a43.333313042874295,43.333313042874295 0 0,0 0.3655316801442015,-0.650240071855608 l 19.373174321206704 11.111120024154017" fill="#ffef16" stroke="none" /><line stroke="#e1ed5e" stroke-width="0.3" x1="26.266209847984243" x2="21.928928074336255" y1="57.711370442889674" y2="55.22380399835377" /><path d="M 25.398753493254645 57.213857153982495 a86.0,86.0 0 0,1 29.58750427330803,-30.492523968695096" fill="none" id="id35" stroke="none" /><text fill="#e1ed5e" style="font-size:6.75px; font-family:Arial;" text-anchor="middle"><textPath startOffset="21.46611528233685" xlink:href="#id35">November</textPath></text><path d="M 81.96595687620814 89.24020034530311 l -26.867096078251933 -16.029936776856285 a52.285775118223135,52.285775118223135 0 0,0 0.467793862813035,-0.7689301123502377 l 26.58718641715268 16.490034662413596" fill="#9dff22" stroke="none" /><path d="M 82.34701348167596 88.62581576622439 l -5.055074792675327 -3.2570892153416158 a27.013519045969353,27.013519045969353 0 0,0 0.255217765216344,-0.3887141659089136 l 4.998260392101063 3.3436214452281963" fill="#ff0000" stroke="none" /><path d="M 82.54541684631803 88.32363383020206 l -45.583176166174326 -30.49318631172138 a75.84214037433108,75.84214037433108 0 0,0 0.7352192500728976,-1.0788435281915614 l 45.05153245043269 31.27330786318336" fill="#42ffd7" stroke="none" /><path d="M 82.95767976084542 87.72973835380427 l -19.361078105609774 -13.939738883820462 a44.85723507786722,44.85723507786722 0 0,0 0.45655563025738777,-0.6227413665835453 l 19.11825986283875 14.270942694075508" fill="#fbff18" stroke="none" /><path d="M 83.39014120810768 87.1503855733568 l -14.107125936723234 -10.913465985844159 a38.835771416418936,38.835771416418936 0 0,0 0.4135934192508282,-0.5252216413792286 l 13.917178436878434 11.154680021176434" fill="#ffb110" stroke="none" /><path d="M 84.07557802195018 86.31012108654704 l -45.23353907085522 -38.88628884367124 a80.65078806611038,80.65078806611038 0 0,0 0.9140735127901537,-1.0449440387029503 l 44.55747369448722 39.659148438577134" fill="#48f4ff" stroke="none" /><path d="M 84.5562425177563 85.77008943001954 l -17.61859485717833 -16.233810293551795 a44.95728451616374,44.95728451616374 0 0,0 0.5292814213270151,-0.5646005171917747 l 17.33654611388086 16.534680227621617" fill="#f9ff18" stroke="none" /><path d="M 85.05521093208273 85.24692304244772 l -21.27937922059892 -21.00640683677347 a50.90118907679258,50.90118907679258 0 0,0 0.6209077319232795,-0.6182413567985736 l 20.914635688508326 21.36958404422215" fill="#aeff20" stroke="none" /><path d="M 85.83668400450813 84.49514656593479 l -42.23311423275568 -46.23339947025376 a83.61919166176654,83.61919166176654 0 0,0 1.0710782753867507,-0.9616246510584894 l 41.431024969772956 46.95352313008153" fill="#4cd6ff" stroke="none" /><path d="M 86.65592168130627 83.78471172551755 l -9.549934586321227 -11.604768693744294 a36.029035466001204,36.029035466001204 0 0,0 0.4822685439281913,-0.38996095632744443 l 9.348762643828534 11.767435747335872" fill="#ff890c" stroke="none" /><path d="M 87.51073957382395 83.11751280151077 l -8.885141973773246 -12.010582733513722 a35.93987434661634,35.93987434661634 0 0,0 0.5005135515392628,-0.36364438103627855 l 8.677083105880202 12.161746349366668" fill="#ff880c" stroke="none" /><path d="M 88.39885842347998 82.49532879139004 l -13.357571017356316 -20.15490348619799 a45.179430059901605,45.179430059901605 0 0,0 0.6519455744963222,-0.4240435366983643 l 13.008658417075706 20.381845947055893" fill="#f6ff19" stroke="none" /><line stroke="#e1ed5e" stroke-width="0.3" x1="56.762969772571076" x2="54.21961505331055" y1="26.818313649435495" y2="22.513508569990535" /><path d="M 56.25429882871897 25.957352633546506 a86.0,86.0 0 0,1 42.265352541879196,-11.944610805530505" fill="none" id="id36" stroke="none" /><text fill="#e1ed5e" style="font-size:6.75px; font-family:Arial;" text-anchor="middle"><textPath startOffset="22.20632615414155" xlink:href="#id36">December</textPath></text><path d="M 89.63071344664047 81.73862282372117 l -23.036863943262553 -40.570280246545856 a67.6545253927597,67.6545253927597 0 0,0 1.0176397541350664,-0.5663154214009838 l 22.335100100055442 40.96081106550702" fill="#37ff77" stroke="none" /><path d="M 92.23578459929587 80.48803036053334 l -23.111603482985867 -58.080936991845334 a83.51033080543945,83.51033080543945 0 0,0 1.340208922756154,-0.5199802406345165 l 22.10841139523004 58.47015993637041" fill="#4cd7ff" stroke="none" /></svg>