<?xml version="1.0" encoding="utf-8" ?>
<svg baseProfile="full" height="200mm" version="1.1" viewBox="0,0,200,200" width="200mm" xmlns="http://www.w3.org/2000/svg" xmlns:ev="http://www.w3.org/2001/xml-events" xmlns:xlink="http://www.w3.org/1999/xlink"><defs /><rect fill="#1a1a1a" height="200" width="200" x="0" y="0" /><text alignment-baseline="middle" fill="#e1ed5e" style="dominant-baseline: central; font-size:9.0px; font-family:Arial;" text-anchor="middle" x="100.0" y="100.0">2024</text><line stroke="#e1ed5e" stroke-width="0.3" x1="100.0" x2="100.0" y1="15.0" y2="10.0" /><path d="M 100.0 14.0 a86.0,86.0 0 0,1 42.35913384403234,11.155469271406648" fill="none" id="id37" stroke="none" /><text fill="#e1ed5e" style="font-size:6.75px; font-family:Arial;" text-anchor="middle"><textPath startOffset="22.145653131862478" xlink:href="#id37">January</textPath></text><path d="M 100.0 79.0 l 0.0 -31.703005508434153 a52.70300550843415,52.70300550843415 0 0,0 0.9047171716219397,0.007765908813647229 l -0.5442242467730849 31.69833399781494" fill="#deff1b" stroke="none" /><path d="M 104.64783097203109 79.52079915486377 l 4.053945406061863 -17.86243146223499 a39.31668450070516,39.31668450070516 0 0,0 0.6569028768024221,0.1550272902715707 l -4.35998043660417 17.790208028317192" fill="#ff4206" stroke="none" /><path d="M 109.3889696526874 81.21577127319529 l 19.795146933221602 -39.60355410967923 a65.2751548865289,65.2751548865289 0 0,0 0.998003587261633,0.5095877427128843 l -20.472077742196813 39.257908415293514" fill="#31ff2f" stroke="none" /><path d="M 110.34350942703115 81.72400993836675 l 14.529307391555292 -25.67189398953302 a50.4982527327997,50.4982527327997 0 0,0 0.7507588030033018,0.43345079701043754 l -14.967858662418992 25.418696295246413" fill="#fffe18" stroke="none" /><line stroke="#e1ed5e" stroke-width="0.3" x1="143.13028292997686" x2="145.6673583964461" y1="26.7553504044142" y2="22.446841604673864" /><path d="M 143.63769802327073 25.89364864446614 a86.0,86.0 0 0,1 29.32050498858742,28.57503671076993" fill="none" id="id38" stroke="none" /><text fill="#e1ed5e" style="font-size:6.75px; font-family:Arial;" text-anchor="middle"><textPath startOffset="20.669276256404974" xlink:href="#id38">February</textPath></text><path d="M 110.96478420261332 82.08984904055464 l 15.455636837214717 -25.245621237388804 a50.60098143145874,50.60098143145874 0 0,0 0.7369331066755125,0.4599007619024349 l -15.886734072679943 24.976584678644823" fill="#ffff18" stroke="none" /><path d="M 111.5731344415666 82.4767994020092 l 33.49302724416263 -50.71271210031722 a81.77468257875051,81.77468257875051 0 0,0 1.1647195761425613,0.783675310611866 l -34.35864310840219 50.13028711564824" fill="#49ecff" stroke="none" /><path d="M 115.8921839302757 86.27271002978787 l 18.99715859997161 -16.409293137811996 a46.102926844396436,46.102926844396436 0 0,0 0.5121934986205517,0.6033626534827806 l -19.276046662099276 16.08076370187966" fill="#ffb711" stroke="none" /><path d="M 117.01052211995028 87.68569379921539 l 26.62372343143173 -19.27352260135167 a53.86778548698072,53.86778548698072 0 0,0 0.5358174792312945,0.7536943868001051 l -26.950656009192986 18.81365098784206" fill="#cdff1d" stroke="none" /><line stroke="#e1ed5e" stroke-width="0.3" x1="172.87174338648825" x2="177.1583165268699" y1="56.24261187166439" y2="53.66864786411523" /><path d="M 173.72905801456457 55.72781907015455 a86.0,86.0 0 0,1 12.242430191666344,42.057860355516425" fill="none" id="id39" stroke="none" /><text fill="#e1ed5e" style="font-size:6.75px; font-family:Arial;" text-anchor="middle"><textPath startOffset="22.145653131862474" xlink:href="#id39">March</textPath></text><path d="M 118.36410011445183 89.81374322990088 l 28.935603576337122 -16.05009153671598 a54.088889263072815,54.088889263072815 0 0,0 0.44341208670375337,0.8158282969907495 l -29.206861012656216 15.551008406250626" fill="#caff1d" stroke="none" /><path d="M 118.8641267826498 90.77261029715802 l 21.22778734710182 -10.383574529456801 a44.631283834412386,44.631283834412386 0 0,0 0.3307406432625257,0.6911207390349884 l -21.402907248324258 10.017641288356709" fill="#ff9f0e" stroke="none" /><path d="M 119.16976305983485 91.42560881287824 l 13.463179527748164 -6.02190895803156 a35.74857927039747,35.74857927039747 0 0,0 0.2457563625083757,0.5623386516493847 l -13.56456977227351 5.789908236606325" fill="#ff0000" stroke="none" /><path d="M 119.4528033332814 92.08871423366111 l 40.958018238153194 -16.65726945126581 a65.21565202017226,65.21565202017226 0 0,0 0.4128502472623735,1.0406523168435151 l -41.237927160381695 15.951716117208731" fill="#32ff2f" stroke="none" /><path d="M 119.71291397450082 92.76114493625339 l 13.830949463824345 -5.078916221728379 a35.733993113144805,35.733993113144805 0 0,0 0.20650815846962653,0.5776400728970342 l -13.916097792337913 4.8407411924504276" fill="#ff0000" stroke="none" /><path d="M 120.26092885502905 94.47779374421319 l 28.442692345157962 -7.752182277707609 a50.48021502479436,50.48021502479436 0 0,0 0.22069594050072505,0.8380184333855469 l -28.571577766463417 7.262783339949264" fill="#fffe18" stroke="none" /><path d="M 120.77682067341334 96.94652285012252 l 45.20416738727318 -6.643455914932305 a66.68973906327614,66.68973906327614 0 0,0 0.15673830058451052,1.1340802639324465 l -45.3115502044129 5.866487342799773" fill="#31ff43" stroke="none" /><path d="M 120.93736805541906 98.37931529534042 l 47.12724871842598 -3.6479471043578564 a68.26822494916195,68.26822494916195 0 0,0 0.08041359350164164,1.1691960011560592 l -47.18292627309269 2.838407679047463" fill="#34ff5b" stroke="none" /><line stroke="#e1ed5e" stroke-width="0.3" x1="184.99686870605535" x2="189.99668451229388" y1="99.2704041080226" y2="99.22748670261217" /><path d="M 185.99683186730306 99.26182062694052 a86.0,86.0 0 0,1 -10.086455211305974,41.156179273409016" fill="none" id="id40" stroke="none" /><text fill="#e1ed5e" style="font-size:6.75px; font-family:Arial;" text-anchor="middle"><textPath startOffset="21.40746469413373" xlink:href="#id40">April</textPath></text><path d="M 120.99922638620191 100.18025310272382 l 30.646184865093986 0.2630606388533851 a51.64731387389814,51.64731387389814 0 0,0 -0.015220139745412536,0.8864968365599986 l -30.637153293749904 -0.7891043913824548" fill="#eeff19" stroke="none" /><path d="M 120.9064616781168 101.97986365728391 l 61.89554966315542 5.861572905661166 a83.17247867853203,83.17247867853203 0 0,0 -0.14680975218965822,1.4202511773638522 l -61.7858075184841 -6.9232286053079495" fill="#4cdcff" stroke="none" /><path d="M 120.77682067341334 103.0534771498775 l 15.171502892452432 2.2296884657951384 a36.33447132020509,36.33447132020509 0 0,0 -0.09598963108523291,0.6163222898823725 l -15.130991769228933 -2.4897989376089615" fill="#ff0b01" stroke="none" /><path d="M 120.65975698304385 103.76489593502545 l 29.038261300273273 5.291738524288219 a50.51648888252775,50.51648888252775 0 0,0 -0.16279229064608264,0.8517980541345791 l -28.94314271734503 -5.7894391434561125" fill="#fffe18" stroke="none" /><path d="M 120.43855184770803 104.8234425847677 l 47.27447923250473 11.156648377137868 a69.57311179773862,69.57311179773862 0 0,0 -0.2842971814915347,1.1600295171365564 l -47.075994524496906 -11.966533718882523" fill="#36ff6e" stroke="none" /><path d="M 120.16314734710363 105.8691983318838 l 33.969542657964915 9.888038790314276 a56.379416890475426,56.379416890475426 0 0,0 -0.2784705045680776,0.9269377420839613 l -33.79479583339321 -10.46971413598896" fill="#a8ff21" stroke="none" /><path d="M 119.83427380445688 106.89939002012753 l 59.449107102178814 20.679485434657003 a83.94312872020677,83.94312872020677 0 0,0 -0.4851106584506514,1.3569408501203293 l -59.08535627368422 -21.696961241158256" fill="#4dd3ff" stroke="none" /><path d="M 119.4528033332814 107.91128576633889 l 32.7577344708305 13.322285431899973 a56.36315111511488,56.36315111511488 0 0,0 -0.3721958276262381,0.8931344931694678 l -32.524212798667776 -13.88265243451072" fill="#a8ff21" stroke="none" /><path d="M 118.8641267826498 109.22738970284198 l 42.35279188229979 20.716872835099032 a68.1481473685983,68.1481473685983 0 0,0 -0.5230535384443014,1.0464574565634004 l -41.99091843064375 -21.44086214782618" fill="#34ff59" stroke="none" /><line stroke="#e1ed5e" stroke-width="0.3" x1="174.33088141563837" x2="178.70328620479359" y1="141.23008692659167" y2="143.65538615756765" /><path d="M 175.20536237346943 141.71514677278685 a86.0,86.0 0 0,1 -30.301960400862466,31.631185727798858" fill="none" id="id41" stroke="none" /><text fill="#e1ed5e" style="font-size:6.75px; font-family:Arial;" text-anchor="middle"><textPath startOffset="22.145653131862474" xlink:href="#id41">May</textPath></text><path d="M 117.21940702142032 112.02048342749411 l 24.893409237110507 17.3775329670925 a51.35886156410753,51.35886156410753 0 0,0 -0.5108614636872377,0.7185906256099398 l -24.59143267489331 -17.802300819411943" fill="#f3ff19" stroke="none" /><path d="M 115.89218393027572 113.72728997021213 l 22.301466373173184 19.26347549264564 a50.4692533066166,50.4692533066166 0 0,0 -0.5719582808212536,0.6507835306411224 l -21.967497028393346 -19.643471301098057" fill="#fffd18" stroke="none" /><path d="M 115.41159269507618 114.26474011684316 l 30.287265009706402 28.033440330372247 a62.2697491938675,62.2697491938675 0 0,0 -0.7328383451414562,0.7782489268116566 l -29.801570830828688 -28.5492307171284" fill="#57ff2a" stroke="none" /><path d="M 114.13192950727249 115.5334660781643 l 42.22551021501994 46.41323254695351 a83.74696700539667,83.74696700539667 0 0,0 -1.07170185389613,0.9583224061954916 l -41.422543334300435 -47.13125048303239" fill="#4dd5ff" stroke="none" /><path d="M 112.45986205192187 116.90419585922612 l 37.379586155765615 50.71258757767834 a84.0,84.0 0 0,0 -1.1680759585041285,0.8455969145076918 l -36.50352918688752 -51.346785263559106" fill="#4dd2ff" stroke="none" /><line stroke="#e1ed5e" stroke-width="0.3" x1="143.1302829299769" x2="145.66735839644613" y1="173.24464959558577" y2="177.55315839532614" /><path d="M 143.63769802327073 174.10635135553383 a86.0,86.0 0 0,1 -40.68552437913181,11.842963189579606" fill="none" id="id42" stroke="none" /><text fill="#e1ed5e" style="font-size:6.75px; font-family:Arial;" text-anchor="middle"><textPath startOffset="21.407464694133747" xlink:href="#id42">June</textPath></text><path d="M 110.34350942703117 118.27599006163325 l 30.343091627389622 53.613335486712984 a82.60432575330242,82.60432575330242 0 0,0 -1.2400711322464661,0.6878465531948038 l -29.418276306987064 -54.12631495534093" fill="#4be2ff" stroke="none" /><path d="M 109.3889696526874 118.78422872680471 l 13.177891648338388 26.364610816330178 a50.47455736379939,50.47455736379939 0 0,0 -0.7783651464428654,0.3807373975000969 l -12.723366252633454 -26.586941963927497" fill="#fffd18" stroke="none" /><path d="M 108.4095320186766 119.2426549942271 l 17.704749319753272 40.51193124215049 a65.21170344426952,65.21170344426952 0 0,0 -1.0296149309765408,0.4394813893455858 l -17.0066993136063 -40.80988728115548" fill="#32ff2f" stroke="none" /><path d="M 106.72888874123015 119.89276391827305 l 8.098040875886266 23.940418921992826 a46.27294846645395,46.27294846645395 0 0,0 -0.7546396529408868,0.248065042969773 l -7.685878485297645 -24.07590488636462" fill="#ffba11" stroke="none" /><path d="M 103.58742460773223 120.69131181640829 l 5.047277715712187 29.11135660236985 a50.5456611970331,50.5456611970331 0 0,0 -0.8562013719448595,0.14088760993068833 l -4.5467988407142546 -29.19371021079621" fill="#ffff18" stroke="none" /><path d="M 100.72087961077811 120.9876233191556 l 1.1131492579608286 32.408126093152134 a53.427237596504376,53.427237596504376 0 0,0 -0.9168792902742462,0.023615558122716696 l -0.5566566536158386 -32.42245936862489" fill="#d3ff1c" stroke="none" /><line stroke="#e1ed5e" stroke-width="0.3" x1="101.45913802915013" x2="101.54496967792366" y1="184.9874750549273" y2="189.98673829345242" /><path d="M 101.47630435890484 185.9873277026323 a86.0,86.0 0 0,1 -42.54439059252881,-10.42667462771756" fill="none" id="id43" stroke="none" /><text fill="#e1ed5e" style="font-size:6.75px; font-family:Arial;" text-anchor="middle"><textPath startOffset="22.145653131862474" xlink:href="#id43">July</textPath></text><path d="M 97.48249496171623 120.84855314841334 l -3.8976072759108895 32.2777794712446 a53.51224984635073,53.51224984635073 0 0,0 -0.9110388628853017,-0.11795222043395831 l 4.451123960686985 -32.206115654610244" fill="#d2ff1c" stroke="none" /><path d="M 91.26138138417905 119.09545874513695 l -9.813316338701684 21.443867221690397 a44.58263384325248,44.58263384325248 0 0,0 -0.6931777673884195,-0.3244421957351058 l 10.179982819961594 -21.272248794384765" fill="#ff9e0e" stroke="none" /><line stroke="#e1ed5e" stroke-width="0.3" x1="58.13341422392154" x2="55.67067388415222" y1="173.97424548756322" y2="178.32567169271397" /><path d="M 57.64086615596768 174.84453072859336 a86.0,86.0 0 0,1 -31.369924170532247,-30.572349798747897" fill="none" id="id44" stroke="none" /><text fill="#e1ed5e" style="font-size:6.75px; font-family:Arial;" text-anchor="middle"><textPath startOffset="22.145653131862474" xlink:href="#id44">August</textPath></text><path d="M 88.72937992617639 117.7192867562869 l -11.589636589547991 18.220833706240484 a42.59440800828443,42.59440800828443 0 0,0 -0.6135914480006253,-0.3977225633924456 l 11.900713669805626 -18.019197301144143" fill="#ff7c0b" stroke="none" /><path d="M 86.40962598614128 116.0094264158162 l -11.44539467010414 13.48264614234714 a38.68555360044453,38.68555360044453 0 0,0 -0.5025815647111876,-0.43411798546644 l 11.675155714578189 -13.284184024415977" fill="#ff3605" stroke="none" /><path d="M 84.83555147118756 114.52719865689866 l -19.592503587728647 18.769175236682567 a48.13204997600546,48.13204997600546 0 0,0 -0.566455017232613,-0.60155559840863 l 19.91181443869751 -18.430078178329445" fill="#ffd814" stroke="none" /><path d="M 83.20337586046588 112.60449989151573 l -50.161466688345605 37.642099756425154 a83.71443545467557,83.71443545467557 0 0,0 -0.8526832702588042,-1.156828618669736 l 50.800251978188236 -36.775464828486534" fill="#4dd5ff" stroke="none" /><line stroke="#e1ed5e" stroke-width="0.3" x1="26.387840678322732" x2="22.057713659400548" y1="142.50000000000003" y2="145.00000000000006" /><path d="M 25.521815274538298 143.00000000000003 a86.0,86.0 0 0,1 -11.493303480769221,-40.785679425670985" fill="none" id="id45" stroke="none" /><text fill="#e1ed5e" style="font-size:6.75px; font-family:Arial;" text-anchor="middle"><textPath startOffset="21.40746469413373" xlink:href="#id45">September</textPath></text><path d="M 81.4637452351635 109.86951160357371 l -22.140496179803094 11.788567147338389 a46.08329895518493,46.08329895518493 0 0,0 -0.3657959090878324,-0.7014618876744381 l 22.339600157865878 -11.406759016559448" fill="#ffb711" stroke="none" /><path d="M 80.68587082218212 108.24405325689762 l -13.640886697846554 5.822483394048555 a35.831557665244006,35.831557665244006 0 0,0 -0.23661480943666338,-0.5677894060511081 l 13.738827351819703 -5.587461478556166" fill="#ff0200" stroke="none" /><path d="M 80.05021161711548 106.5578916946017 l -28.008398608364846 9.206916940054873 a50.4828375864014,50.4828375864014 0 0,0 -0.26355715462646667,-0.825589033061827 l 28.162320478768567 -8.724758873301655" fill="#fffe18" stroke="none" /><path d="M 79.48165901384964 104.47187691870673 l -28.80436928446304 6.2777782203756285 a50.480539161622204,50.480539161622204 0 0,0 -0.17726431031420098,-0.8482738952561487 l 28.90789130560161 -5.782387873834071" fill="#fffe18" stroke="none" /><line stroke="#e1ed5e" stroke-width="0.3" x1="15.003131293944662" x2="10.003315487706104" y1="100.72959589197737" y2="100.7725132973878" /><path d="M 14.003168132696942 100.73817937305945 a86.0,86.0 0 0,1 10.791469493833604,-42.45332614584628" fill="none" id="id46" stroke="none" /><text fill="#e1ed5e" style="font-size:6.75px; font-family:Arial;" text-anchor="middle"><textPath startOffset="22.145653131862435" xlink:href="#id46">October</textPath></text><path d="M 79.22317932658666 96.9465228501225 l -29.15965217388892 -4.285464701790561 a50.472877745691505,50.472877745691505 0 0,0 0.13334094975326705,-0.8561445497592586 l 29.081789731997382 4.785397433481269" fill="#fffd18" stroke="none" /><path d="M 79.56144815229197 95.17655741523228 l -28.688400758568566 -6.770384464556844 a50.47647271778206,50.47647271778206 0 0,0 0.20626242745930812,-0.8416210912599354 l 28.567950804592957 7.261861380424897" fill="#fffe18" stroke="none" /><path d="M 79.73907114497095 94.47779374421319 l -28.43984935242718 -7.751407407396608 a50.47726832635948,50.47726832635948 0 0,0 0.23503540061463657,-0.8340577205841977 l 28.30259545973796 8.238473051883819" fill="#fffe18" stroke="none" /><path d="M 80.28708602549916 92.7611449362534 l -24.902026797794953 -9.144369169162172 a47.527917862885914,47.527917862885914 0 0,0 0.28781394354032647,-0.763460679594225 l 24.74138217044019 9.570498128950542" fill="#ffcf13" stroke="none" /><path d="M 81.29705330413844 90.45014215332179 l -26.249740079815552 -13.403304321556938 a50.473673354268925,50.473673354268925 0 0,0 0.40064543225481947,-0.7682904434290017 l 26.015786578585793 13.851941008090426" fill="#fffd18" stroke="none" /><path d="M 81.63589988554816 89.8137432299009 l -22.889506124593975 -12.696423199217024 a47.17496232435572,47.17496232435572 0 0,0 0.3988904435799782,-0.7048011928617326 l 22.668182315992627 13.087481162177863" fill="#ffc912" stroke="none" /><line stroke="#e1ed5e" stroke-width="0.3" x1="26.387840678322718" x2="22.05771365940052" y1="57.49999999999999" y2="54.99999999999999" /><path d="M 25.521815274538284 56.99999999999999 a86.0,86.0 0 0,1 29.574782752854787,-30.34633250058573" fill="none" id="id47" stroke="none" /><text fill="#e1ed5e" style="font-size:6.75px; font-family:Arial;" text-anchor="middle"><textPath startOffset="21.40746469413373" xlink:href="#id47">November</textPath></text><path d="M 82.576782715395 88.27688183743585 l -16.282689924448142 -10.955720454531761 a40.625335713143116,40.625335713143116 0 0,0 0.39427906493628323,-0.5752649389146468 l 16.092221122696543 11.233620128516442" fill="#ff5908" stroke="none" /><line stroke="#e1ed5e" stroke-width="0.3" x1="56.869717070023135" x2="54.33264160355391" y1="26.7553504044142" y2="22.446841604673864" /><path d="M 56.362301976729285 25.89364864446614 a86.0,86.0 0 0,1 42.16139366436587,-11.88097634709845" fill="none" id="id48" stroke="none" /><text fill="#e1ed5e" style="font-size:6.75px; font-family:Arial;" text-anchor="middle"><textPath startOffset="22.145653131862474" xlink:href="#id48">December</textPath></text></svg>