<?xml version="1.0" encoding="utf-8" ?>
<svg baseProfile="full" height="200mm" version="1.1" viewBox="0,0,200,200" width="200mm" xmlns="http://www.w3.org/2000/svg" xmlns:ev="http://www.w3.org/2001/xml-events" xmlns:xlink="http://www.w3.org/1999/xlink"><defs /><rect fill="#1a1a1a" height="200" width="200" x="0" y="0" /><text alignment-baseline="middle" fill="#e1ed5e" style="dominant-baseline: central; font-size:9.0px; font-family:Arial;" text-anchor="middle" x="100.0" y="100.0">2021</text><line stroke="#e1ed5e" stroke-width="0.3" x1="100.0" x2="100.0" y1="15.0" y2="10.0" /><path d="M 100.0 14.0 a86.0,86.0 0 0,1 42.46469731375804,11.215312516191453" fill="none" id="id1" stroke="none" /><text fill="#e1ed5e" style="font-size:6.75px; font-family:Arial;" text-anchor="middle"><textPath startOffset="22.20632615414155" xlink:href="#id1">January</textPath></text><line stroke="#e1ed5e" stroke-width="0.3" x1="143.23703022742887" x2="145.7803849466894" y1="26.81831364943548" y2="22.513508569990506" /><path d="M 143.74570117128098 25.957352633546492 a86.0,86.0 0 0,1 28.547481713284135,27.462654790039103" fill="none" id="id2" stroke="none" /><text fill="#e1ed5e" style="font-size:6.75px; font-family:Arial;" text-anchor="middle"><textPath startOffset="19.985693538727396" xlink:href="#id2">February</textPath></text><line stroke="#e1ed5e" stroke-width="0.3" x1="172.23445277983987" x2="176.4835382374775" y1="55.19839476539836" y2="52.563006222186495" /><path d="M 173.08426987136738 54.67131705675599 a86.0,86.0 0 0,1 12.851231095245387,41.99856678651699" fill="none" id="id3" stroke="none" /><text fill="#e1ed5e" style="font-size:6.75px; font-family:Arial;" text-anchor="middle"><textPath startOffset="22.20632615414155" xlink:href="#id3">March</textPath></text><line stroke="#e1ed5e" stroke-width="0.3" x1="184.98032266829074" x2="189.97916517819016" y1="98.17113171792111" y2="98.06355123074" /><path d="M 185.9800911702706 98.14961562048488 a86.0,86.0 0 0,1 -9.607161424134198,41.387399972396054" fill="none" id="id4" stroke="none" /><text fill="#e1ed5e" style="font-size:6.75px; font-family:Arial;" text-anchor="middle"><textPath startOffset="21.466115282336823" xlink:href="#id4">April</textPath></text><path d="M 118.81262510543309 109.33194174019688 l 22.59156263915826 11.2064714619624 a46.21832082250499,46.21832082250499 0 0,0 -0.35966949852660696,0.7096620424471619 l -22.39531447084538 -11.593687716112257" fill="#ff990e" stroke="none" /><line stroke="#e1ed5e" stroke-width="0.3" x1="174.80103733775053" x2="179.2010983576182" y1="140.37084112569926" y2="142.7455964860345" /><path d="M 175.68104954172406 140.8457921977663 a86.0,86.0 0 0,1 -30.038265399797805,32.042727171017184" fill="none" id="id5" stroke="none" /><text fill="#e1ed5e" style="font-size:6.75px; font-family:Arial;" text-anchor="middle"><textPath startOffset="22.206326154141568" xlink:href="#id5">May</textPath></text><path d="M 117.35343817320211 111.8261652097733 l 15.541321642662446 10.591228982402692 a39.807094665534464,39.807094665534464 0 0,0 -0.39075230394591626,0.5629078375180449 l -15.356708431554393 -10.857178082107756" fill="#ff2203" stroke="none" /><path d="M 116.71984013943494 112.70617746262583 l 18.60394587382926 14.137996285049947 a44.366423368424506,44.366423368424506 0 0,0 -0.46731192350059436,0.6040636554057427 l -18.357827133110597 -14.456137934568943" fill="#ff780b" stroke="none" /><path d="M 114.29624159901734 115.38237550388516 l 23.26980402397031 25.037689865505122 a55.181423216642145,55.181423216642145 0 0,0 -0.7013307960753068,0.6406490538221153 l -22.835373678428137 -25.434531685913818" fill="#cfff1d" stroke="none" /><path d="M 111.45004920935366 117.60387380957326 l 16.39793515932065 25.210999184739745 a51.07468632225833,51.07468632225833 0 0,0 -0.7411136370065166,0.4730137877156766 l -15.961539720267202 -25.48952740127923" fill="#ffed16" stroke="none" /><line stroke="#e1ed5e" stroke-width="0.3" x1="143.8653032363475" x2="146.44561519142675" y1="172.8068346515853" y2="177.08958963109032" /><path d="M 144.38136562736335 173.6633856474863 a86.0,86.0 0 0,1 -40.68145358897372,12.25698825130547" fill="none" id="id6" stroke="none" /><text fill="#e1ed5e" style="font-size:6.75px; font-family:Arial;" text-anchor="middle"><textPath startOffset="21.466115282336833" xlink:href="#id6">June</textPath></text><path d="M 108.92500713936063 119.00905698771935 l 9.62220048338446 20.493984428231972 a43.64045361486953,43.64045361486953 0 0,0 -0.6827278900815262,0.31340688864801947 l -9.268004597535516 -20.656578387214065" fill="#ff6b09" stroke="none" /><path d="M 108.59647513512805 119.15986991738527 l 9.468794515625467 21.104100034267443 a44.13095561872674,44.13095561872674 0 0,0 -0.6957546196646027,0.3049983789174527 l -9.10411922130311 -21.26396296647935" fill="#ff740a" stroke="none" /><line stroke="#e1ed5e" stroke-width="0.3" x1="102.19456741930631" x2="102.32365962044197" y1="184.97166512339345" y2="189.96999836594603" /><path d="M 102.22038585953345 185.97133177190398 a86.0,86.0 0 0,1 -42.740103519485714,-10.115201625700543" fill="none" id="id7" stroke="none" /><text fill="#e1ed5e" style="font-size:6.75px; font-family:Arial;" text-anchor="middle"><textPath startOffset="22.20632615414155" xlink:href="#id7">July</textPath></text><line stroke="#e1ed5e" stroke-width="0.3" x1="58.666819895761336" x2="56.23545636021788" y1="174.27360380694188" y2="178.64263932499728" /><path d="M 58.180547188652646 175.14741091055294 a86.0,86.0 0 0,1 -31.652253787137756,-30.449443065178592" fill="none" id="id8" stroke="none" /><text fill="#e1ed5e" style="font-size:6.75px; font-family:Arial;" text-anchor="middle"><textPath startOffset="22.20632615414155" xlink:href="#id8">August</textPath></text><line stroke="#e1ed5e" stroke-width="0.3" x1="26.63291911575756" x2="22.317208475507996" y1="142.92168965132927" y2="145.44649492493687" /><path d="M 25.769776987707644 143.4266507060508 a86.0,86.0 0 0,1 -11.730757126820373,-40.83630448921669" fill="none" id="id9" stroke="none" /><text fill="#e1ed5e" style="font-size:6.75px; font-family:Arial;" text-anchor="middle"><textPath startOffset="21.46611528233685" xlink:href="#id9">September</textPath></text><path d="M 81.69416730710424 110.29060199501025 l -23.646197108301905 13.292681475862695 a48.12633440963612,48.12633440963612 0 0,0 -0.39973181179360767,-0.725629348358863 l 23.87150532954703 -12.88368160910601" fill="#ffbb11" stroke="none" /><path d="M 81.51974371655577 109.97397251340807 l -24.363976113876518 13.149472840094468 a48.68595254005048,48.68595254005048 0 0,0 -0.39168426506303644,-0.7409190194299814 l 24.58671288716444 -12.728138805578359" fill="#ffc512" stroke="none" /><path d="M 80.87730276802145 108.67885076344099 l -35.15623595648584 15.955684575731256 a59.60757434634214,59.60757434634214 0 0,0 -0.4160010208571187,-0.9379724809706699 l 35.42567806207423 -15.34816375826789" fill="#8cff24" stroke="none" /><path d="M 80.45479744820244 107.68017299344265 l -38.22948755684136 15.022053473689983 a62.07500224497973,62.07500224497973 0 0,0 -0.3822215659296021,-0.9978598974611418 l 38.48240340236447 -14.361770009395684" fill="#68ff28" stroke="none" /><path d="M 79.97269907076064 106.31721596034903 l -24.965780751732325 7.874961742705888 a47.1783351455483,47.1783351455483 0 0,0 -0.2376287988634336,-0.7765846637959908 l 25.097636323101888 -7.4440501063578495" fill="#ffaa0f" stroke="none" /><path d="M 79.58551787078972 104.9243191809786 l -32.54019198830483 7.849245968941676 a54.47349334797139,54.47349334797139 0 0,0 -0.21203011990708806,-0.913420207215937 l 32.67048267414247 -7.287957104377164" fill="#daff1c" stroke="none" /><path d="M 79.18660465613746 102.79330883721812 l -48.18053763659094 6.466178119366562 a69.61250524733663,69.61250524733663 0 0,0 -0.14916465112742922,-1.1889890338949645 l 48.28470379696522 -5.635871331184189" fill="#35ff64" stroke="none" /><line stroke="#e1ed5e" stroke-width="0.3" x1="15.007084014347285" x2="10.007500721073583" y1="101.09737516637583" y2="101.16192664675087" /><path d="M 14.007167355692545 101.11028546245083 a86.0,86.0 0 0,1 10.666146001902534,-42.60595125391555" fill="none" id="id10" stroke="none" /><text fill="#e1ed5e" style="font-size:6.75px; font-family:Arial;" text-anchor="middle"><textPath startOffset="22.20632615414155" xlink:href="#id10">October</textPath></text><path d="M 79.00019446554 99.90962569577889 l -17.041439678990926 -0.07333916742170439 a38.041597488679415,38.041597488679415 0 0,0 0.008454279271923656,-0.6547932465531149 l 17.037652392601288 0.36666867203529124" fill="#ff0000" stroke="none" /><path d="M 79.00486145842228 99.54816195383935 l -24.282459115983 -0.5225847336617334 a45.288081758822415,45.288081758822415 0 0,0 0.023481451033704085,-0.7792350431104811 l 24.26986597049365 0.9404899241972089" fill="#ff890c" stroke="none" /><path d="M 79.12142395522702 97.74499172005258 l -62.635728134318974 -6.7650248398422725 a84.0,84.0 0 0,0 0.16763858798564435,-1.436225046700553 l 62.50999919332974 7.842193624867687" fill="#4dd2ff" stroke="none" /><path d="M 79.54389044137918 95.25157060432595 l -44.00979612635406 -10.215892177597965 a66.17993590154325,66.17993590154325 0 0,0 0.2671375164425044,-1.107457468744609 l 43.82742580965074 10.97193487800197" fill="#31ff2f" stroke="none" /><path d="M 80.803312248108 91.48605970444005 l -23.036064401215246 -10.216745695480213 a46.20004277184961,46.20004277184961 0 0,0 0.3286752069670659,-0.7241922510022788 l 22.856786877284826 10.611759955324564" fill="#ff990e" stroke="none" /><line stroke="#e1ed5e" stroke-width="0.3" x1="26.266209847984243" x2="21.928928074336255" y1="57.711370442889674" y2="55.22380399835377" /><path d="M 25.398753493254645 57.213857153982495 a86.0,86.0 0 0,1 29.58750427330803,-30.492523968695096" fill="none" id="id11" stroke="none" /><text fill="#e1ed5e" style="font-size:6.75px; font-family:Arial;" text-anchor="middle"><textPath startOffset="21.46611528233685" xlink:href="#id11">November</textPath></text><path d="M 83.39014120810768 87.1503855733568 l -25.63816134445441 -19.834033028933124 a53.41456745534462,53.41456745534462 0 0,0 0.5688547642012333,-0.7223877824298035 l 25.292952499659208 20.272413205315974" fill="#ebff1a" stroke="none" /><path d="M 83.84228863543731 86.58626213691792 l -24.625421939321516 -20.443424641580684 a53.0053904329506,53.0053904329506 0 0,0 0.5888378579037381,-0.6969982947368472 l 24.269873467930655 20.864281885946646" fill="#f1ff19" stroke="none" /><line stroke="#e1ed5e" stroke-width="0.3" x1="56.762969772571076" x2="54.21961505331055" y1="26.818313649435495" y2="22.513508569990535" /><path d="M 56.25429882871897 25.957352633546506 a86.0,86.0 0 0,1 42.265352541879196,-11.944610805530505" fill="none" id="id12" stroke="none" /><text fill="#e1ed5e" style="font-size:6.75px; font-family:Arial;" text-anchor="middle"><textPath startOffset="22.20632615414155" xlink:href="#id12">December</textPath></text><path d="M 89.63071344664047 81.73862282372117 l -11.439422883894219 -20.145997015972778 a44.167252570905916,44.167252570905916 0 0,0 0.6643510066199972,-0.3697106159064577 l 11.090947788202175 20.33992302943942" fill="#ff740a" stroke="none" /></svg>