<?xml version="1.0" encoding="utf-8" ?>
<svg baseProfile="full" height="200mm" version="1.1" viewBox="0,0,200,200" width="200mm" xmlns="http://www.w3.org/2000/svg" xmlns:ev="http://www.w3.org/2001/xml-events" xmlns:xlink="http://www.w3.org/1999/xlink"><defs /><rect fill="#1a1a1a" height="200" width="200" x="0" y="0" /><text alignment-baseline="middle" fill="#e1ed5e" style="dominant-baseline: central; font-size:9.0px; font-family:Arial;" text-anchor="middle" x="100.0" y="100.0">2025</text><line stroke="#e1ed5e" stroke-width="0.3" x1="100.0" x2="100.0" y1="15.0" y2="10.0" /><path d="M 100.0 14.0 a86.0,86.0 0 0,1 42.46469731375804,11.215312516191453" fill="none" id="id49" stroke="none" /><text fill="#e1ed5e" style="font-size:6.75px; font-family:Arial;" text-anchor="middle"><textPath startOffset="22.20632615414155" xlink:href="#id49">January</textPath></text><line stroke="#e1ed5e" stroke-width="0.3" x1="143.23703022742887" x2="145.7803849466894" y1="26.81831364943548" y2="22.513508569990506" /><path d="M 143.74570117128098 25.957352633546492 a86.0,86.0 0 0,1 28.547481713284135,27.462654790039103" fill="none" id="id50" stroke="none" /><text fill="#e1ed5e" style="font-size:6.75px; font-family:Arial;" text-anchor="middle"><textPath startOffset="19.985693538727396" xlink:href="#id50">February</textPath></text><path d="M 114.42810811169701 84.74124197986012 l 4.066952649550809 -4.301093800964287 a26.91941819255759,26.91941819255759 0 0,0 0.33395045292218867,0.3212600711225484 l -4.140386346085417 4.230450643079436" fill="#ff0000" stroke="none" /><path d="M 115.19652480421416 85.50635884689758 l 6.51902618037388 -6.217502181802603 a30.008608978145304,30.008608978145304 0 0,0 0.35329089340990827,0.3768660925945096 l -6.625084395754251 6.1043666723300385" fill="#ff3004" stroke="none" /><path d="M 116.15771136456269 86.58626213691792 l 5.684603076415249 -4.719218817705857 a28.388216184288247,28.388216184288247 0 0,0 0.3088928669224171,0.3786661309431739 l -5.764994435414075 4.6206685171545825" fill="#ff1702" stroke="none" /><path d="M 116.82858285166822 87.43820079747576 l 11.83489152728048 -8.834227591220822 a35.76848789131719,35.76848789131719 0 0,0 0.3640506264870536,0.4965646454000182 l -11.98520476628116 8.62920050214931" fill="#ff870c" stroke="none" /><path d="M 117.2510076193507 88.02491185347247 l 8.494215553083619 -5.89640803761989 a31.340180153573538,31.340180153573538 0 0,0 0.30381399622866145,0.44580955078747925 l -8.594454014981013 5.749320463562005" fill="#ff4506" stroke="none" /><line stroke="#e1ed5e" stroke-width="0.3" x1="172.23445277983987" x2="176.4835382374775" y1="55.19839476539836" y2="52.563006222186495" /><path d="M 173.08426987136738 54.67131705675599 a86.0,86.0 0 0,1 12.851231095245387,41.99856678651699" fill="none" id="id51" stroke="none" /><text fill="#e1ed5e" style="font-size:6.75px; font-family:Arial;" text-anchor="middle"><textPath startOffset="22.20632615414155" xlink:href="#id51">March</textPath></text><path d="M 118.03404312379186 89.2402003453031 l 15.216227055973887 -9.078582850157492 a38.71875369167159,38.71875369167159 0 0,0 0.33655875728480705,0.5752880133238168 l -15.37024548772902 8.81531542447978" fill="#ffb110" stroke="none" /><path d="M 118.3937258080291 89.86733742301442 l 6.467785086745868 -3.5629477457931924 a28.38422917897224,28.38422917897224 0 0,0 0.2320639171407837,0.4299791940609896 l -6.5281571031051175 3.451087568399744" fill="#ff1702" stroke="none" /><path d="M 118.73160827565052 90.50648371742162 l 13.172254187027834 -6.675935550358786 a35.76740992321323,35.76740992321323 0 0,0 0.27360363175024355,0.5515682260885769 l -13.285217831731487 6.448207735771259" fill="#ff860c" stroke="none" /><path d="M 119.196687751892 91.48605970444005 l 21.600093836363694 -9.579877095368582 a44.629178972238634,44.629178972238634 0 0,0 0.3054108395430654,0.7049303257851979 l -21.76179538574944 9.206647624996782" fill="#fdff18" stroke="none" /><path d="M 119.7369772167798 92.82701384747503 l 13.87721340673767 -5.043379161300153 a35.765253987005316,35.765253987005316 0 0,0 0.2053043420089603,0.5804230214393523 l -13.96197082955644 4.803758513434186" fill="#ff860c" stroke="none" /><path d="M 120.18372546131832 94.20196356495316 l 14.19275883625866 -4.077053713605453 a35.76674542232723,35.76674542232723 0 0,0 0.1648901966983928,0.5931977687661201 l -14.260835803523415 3.8321446414203812" fill="#ff860c" stroke="none" /><path d="M 120.45610955862082 95.25157060432595 l 14.385803782073747 -3.339343356733737 a35.768295924394565,35.768295924394565 0 0,0 0.13405550745819023,0.6009445542915932 l -14.441153676533975 3.09122063289218" fill="#ff870c" stroke="none" /><path d="M 120.67395015179393 96.31383870115 l 28.072942513308675 -5.005400200620088 a49.515682220909625,49.515682220909625 0 0,0 0.14238856547032958,0.8403853735604279 l -28.15494294029923 4.521429038743823" fill="#beff1e" stroke="none" /><path d="M 120.91429891909075 98.10471618934814 l 7.358197203385757 -0.6668104003443754 a28.388349084465446,28.388349084465446 0 0,0 0.039913364772915044,0.48704414707526095 l -7.368585051978166 0.5400523360613457" fill="#ff1702" stroke="none" /><line stroke="#e1ed5e" stroke-width="0.3" x1="184.98032266829074" x2="189.97916517819016" y1="98.17113171792111" y2="98.06355123074" /><path d="M 185.9800911702706 98.14961562048488 a86.0,86.0 0 0,1 -9.607161424134198,41.387399972396054" fill="none" id="id52" stroke="none" /><text fill="#e1ed5e" style="font-size:6.75px; font-family:Arial;" text-anchor="middle"><textPath startOffset="21.466115282336823" xlink:href="#id52">April</textPath></text><path d="M 120.99980553446 99.90962569577887 l 14.783501611125327 -0.06362195449214968 a35.783638511518014,35.783638511518014 0 0,0 -0.0026508906392291873,0.6159736265380652 l -14.782406423196594 -0.19086115024960024" fill="#ff870c" stroke="none" /><path d="M 120.8583938346157 102.4346265915055 l 14.667259034788943 1.7119869896854163 a35.766834022445366,35.766834022445366 0 0,0 -0.0766406452394536,0.6109013499619387 l -14.63561688030264 -1.9642060939347499" fill="#ff860c" stroke="none" /><path d="M 120.64145759157962 103.86396538481128 l 61.924372774738885 11.591896154433844 a84.0,84.0 0 0,0 -0.2782802680973435,1.4189450917282203 l -61.715662573665874 -12.656104973230008" fill="#4dd2ff" stroke="none" /><line stroke="#e1ed5e" stroke-width="0.3" x1="174.80103733775053" x2="179.2010983576182" y1="140.37084112569926" y2="142.7455964860345" /><path d="M 175.68104954172406 140.8457921977663 a86.0,86.0 0 0,1 -30.038265399797805,32.042727171017184" fill="none" id="id53" stroke="none" /><text fill="#e1ed5e" style="font-size:6.75px; font-family:Arial;" text-anchor="middle"><textPath startOffset="22.206326154141568" xlink:href="#id53">May</textPath></text><path d="M 114.29624159901734 115.38237550388516 l 6.035480501798744 6.494016401585358 a29.865623154164204,29.865623154164204 0 0,0 -0.379578489299966,0.3467359502564031 l -5.922802463031913 -6.596945118428344" fill="#ff2e04" stroke="none" /><path d="M 112.63410532772338 116.77436683061366 l 5.331098142881694 7.078126510665637 a29.861178381571175,29.861178381571175 0 0,0 -0.41324320184270646,0.3057074414735661 l -5.208469970620423 -7.168843900878972" fill="#ff2e04" stroke="none" /><line stroke="#e1ed5e" stroke-width="0.3" x1="143.8653032363475" x2="146.44561519142675" y1="172.8068346515853" y2="177.08958963109032" /><path d="M 144.38136562736335 173.6633856474863 a86.0,86.0 0 0,1 -40.68145358897372,12.25698825130547" fill="none" id="id54" stroke="none" /><text fill="#e1ed5e" style="font-size:6.75px; font-family:Arial;" text-anchor="middle"><textPath startOffset="21.466115282336833" xlink:href="#id54">June</textPath></text><line stroke="#e1ed5e" stroke-width="0.3" x1="102.19456741930631" x2="102.32365962044197" y1="184.97166512339345" y2="189.96999836594603" /><path d="M 102.22038585953345 185.97133177190398 a86.0,86.0 0 0,1 -42.740103519485714,-10.115201625700543" fill="none" id="id55" stroke="none" /><text fill="#e1ed5e" style="font-size:6.75px; font-family:Arial;" text-anchor="middle"><textPath startOffset="22.20632615414155" xlink:href="#id55">July</textPath></text><line stroke="#e1ed5e" stroke-width="0.3" x1="58.666819895761336" x2="56.23545636021788" y1="174.27360380694188" y2="178.64263932499728" /><path d="M 58.180547188652646 175.14741091055294 a86.0,86.0 0 0,1 -31.652253787137756,-30.449443065178592" fill="none" id="id56" stroke="none" /><text fill="#e1ed5e" style="font-size:6.75px; font-family:Arial;" text-anchor="middle"><textPath startOffset="22.20632615414155" xlink:href="#id56">August</textPath></text><line stroke="#e1ed5e" stroke-width="0.3" x1="26.63291911575756" x2="22.317208475507996" y1="142.92168965132927" y2="145.44649492493687" /><path d="M 25.769776987707644 143.4266507060508 a86.0,86.0 0 0,1 -11.730757126820373,-40.83630448921669" fill="none" id="id57" stroke="none" /><text fill="#e1ed5e" style="font-size:6.75px; font-family:Arial;" text-anchor="middle"><textPath startOffset="21.46611528233685" xlink:href="#id57">September</textPath></text><line stroke="#e1ed5e" stroke-width="0.3" x1="15.007084014347285" x2="10.007500721073583" y1="101.09737516637583" y2="101.16192664675087" /><path d="M 14.007167355692545 101.11028546245083 a86.0,86.0 0 0,1 10.666146001902534,-42.60595125391555" fill="none" id="id58" stroke="none" /><text fill="#e1ed5e" style="font-size:6.75px; font-family:Arial;" text-anchor="middle"><textPath startOffset="22.20632615414155" xlink:href="#id58">October</textPath></text><line stroke="#e1ed5e" stroke-width="0.3" x1="26.266209847984243" x2="21.928928074336255" y1="57.711370442889674" y2="55.22380399835377" /><path d="M 25.398753493254645 57.213857153982495 a86.0,86.0 0 0,1 29.58750427330803,-30.492523968695096" fill="none" id="id59" stroke="none" /><text fill="#e1ed5e" style="font-size:6.75px; font-family:Arial;" text-anchor="middle"><textPath startOffset="21.46611528233685" xlink:href="#id59">November</textPath></text><line stroke="#e1ed5e" stroke-width="0.3" x1="56.762969772571076" x2="54.21961505331055" y1="26.818313649435495" y2="22.513508569990535" /><path d="M 56.25429882871897 25.957352633546506 a86.0,86.0 0 0,1 42.265352541879196,-11.944610805530505" fill="none" id="id60" stroke="none" /><text fill="#e1ed5e" style="font-size:6.75px; font-family:Arial;" text-anchor="middle"><textPath startOffset="22.20632615414155" xlink:href="#id60">December</textPath></text></svg>